<svg width="20" height="35" viewBox="0 0 20 35" fill="none" xmlns="http://www.w3.org/2000/svg">
<path d="M19.5 17.1016C19.5 17.349 19.4544 17.5768 19.3633 17.7852C19.2721 18.0065 19.1354 18.2083 18.9531 18.3906L3.46484 33.5469C3.11328 33.8854 2.6901 34.0547 2.19531 34.0547C1.85677 34.0547 1.55729 33.9766 1.29688 33.8203C1.02344 33.6641 0.808594 33.4492 0.652344 33.1758C0.483073 32.9154 0.398438 32.6159 0.398438 32.2773C0.398438 31.7956 0.574219 31.3724 0.925781 31.0078L15.1445 17.1016L0.925781 3.19531C0.574219 2.83073 0.398438 2.40755 0.398438 1.92578C0.398438 1.58724 0.483073 1.28776 0.652344 1.02734C0.808594 0.753906 1.02344 0.539062 1.29688 0.382812C1.55729 0.226562 1.85677 0.148438 2.19531 0.148438C2.6901 0.148438 3.11328 0.324219 3.46484 0.675781L18.9531 15.8125C19.1354 15.9948 19.2721 16.1901 19.3633 16.3984C19.4544 16.6198 19.5 16.8542 19.5 17.1016Z" fill="black"/>
</svg>
