<svg width="20" height="35" viewBox="0 0 20 35" fill="none" xmlns="http://www.w3.org/2000/svg">
<path d="M0.5 17.8984C0.5 17.651 0.545573 17.4232 0.636719 17.2148C0.727865 16.9935 0.864583 16.7917 1.04688 16.6094L16.5352 1.45312C16.8867 1.11458 17.3099 0.945312 17.8047 0.945312C18.1432 0.945312 18.4427 1.02344 18.7031 1.17969C18.9766 1.33594 19.1914 1.55078 19.3477 1.82422C19.5169 2.08464 19.6016 2.38411 19.6016 2.72266C19.6016 3.20443 19.4258 3.6276 19.0742 3.99219L4.85547 17.8984L19.0742 31.8047C19.4258 32.1693 19.6016 32.5924 19.6016 33.0742C19.6016 33.4128 19.5169 33.7122 19.3477 33.9727C19.1914 34.2461 18.9766 34.4609 18.7031 34.6172C18.4427 34.7734 18.1432 34.8516 17.8047 34.8516C17.3099 34.8516 16.8867 34.6758 16.5352 34.3242L1.04688 19.1875C0.864583 19.0052 0.727865 18.8099 0.636719 18.6016C0.545573 18.3802 0.5 18.1458 0.5 17.8984Z" fill="black"/>
</svg>
