<svg width="31" height="30" viewBox="0 0 31 30" fill="none" xmlns="http://www.w3.org/2000/svg">
<path d="M3.77344 29.5469C3.03125 29.5469 2.38021 29.2799 1.82031 28.7461C1.26042 28.1992 0.980469 27.5677 0.980469 26.8516C0.980469 26.0703 1.25391 25.4062 1.80078 24.8594C2.36068 24.2995 3.01823 24.0195 3.77344 24.0195C4.54167 24.0195 5.19271 24.293 5.72656 24.8398C6.26042 25.3737 6.52734 26.0247 6.52734 26.793C6.52734 27.5482 6.25391 28.1992 5.70703 28.7461C5.17318 29.2799 4.52865 29.5469 3.77344 29.5469ZM1.27344 17.6328C1.27344 17.2031 1.42969 16.832 1.74219 16.5195C2.05469 16.207 2.42578 16.0508 2.85547 16.0508C4.44401 16.0508 5.94141 16.3568 7.34766 16.9688C8.75391 17.5677 9.99089 18.401 11.0586 19.4688C12.1263 20.5234 12.9596 21.7539 13.5586 23.1602C14.1706 24.5664 14.4766 26.0703 14.4766 27.6719C14.4766 28.1016 14.3203 28.4727 14.0078 28.7852C13.6953 29.0977 13.3242 29.2539 12.8945 29.2539C12.4648 29.2539 12.0938 29.0977 11.7812 28.7852C11.4818 28.4727 11.332 28.1016 11.332 27.6719C11.332 26.1224 10.9479 24.7096 10.1797 23.4336C9.41146 22.1445 8.38281 21.1159 7.09375 20.3477C5.81771 19.5794 4.40495 19.1953 2.85547 19.1953C2.42578 19.1953 2.05469 19.0456 1.74219 18.7461C1.42969 18.4336 1.27344 18.0625 1.27344 17.6328ZM1.27344 9.87891C1.27344 9.44922 1.42969 9.07812 1.74219 8.76562C2.05469 8.45312 2.42578 8.29688 2.85547 8.29688C5.52474 8.29688 8.02474 8.80469 10.3555 9.82031C12.6992 10.8229 14.7565 12.2096 16.5273 13.9805C18.3112 15.7513 19.7044 17.8086 20.707 20.1523C21.7227 22.4961 22.2305 25.0026 22.2305 27.6719C22.2305 28.1016 22.0742 28.4727 21.7617 28.7852C21.4492 29.0977 21.0781 29.2539 20.6484 29.2539C20.2188 29.2539 19.8477 29.0977 19.5352 28.7852C19.2357 28.4727 19.0859 28.1016 19.0859 27.6719C19.0859 25.4323 18.6628 23.3359 17.8164 21.3828C16.9831 19.4167 15.8177 17.6914 14.3203 16.207C12.8359 14.7096 11.1107 13.5443 9.14453 12.7109C7.19141 11.8646 5.09505 11.4414 2.85547 11.4414C2.42578 11.4414 2.05469 11.2917 1.74219 10.9922C1.42969 10.6797 1.27344 10.3086 1.27344 9.87891ZM1.27344 1.61719C1.27344 1.1875 1.42969 0.822917 1.74219 0.523438C2.05469 0.210938 2.42578 0.0546875 2.85547 0.0546875C5.88932 0.0546875 8.78646 0.523438 11.5469 1.46094C14.3073 2.38542 16.8398 3.69401 19.1445 5.38672C21.4492 7.07943 23.4479 9.07812 25.1406 11.3828C26.8333 13.6875 28.1419 16.2201 29.0664 18.9805C30.0039 21.7279 30.4727 24.625 30.4727 27.6719C30.4727 28.1016 30.3164 28.4727 30.0039 28.7852C29.7044 29.0977 29.3398 29.2539 28.9102 29.2539C28.4805 29.2539 28.1094 29.0977 27.7969 28.7852C27.4844 28.4727 27.3281 28.1016 27.3281 27.6719C27.3281 24.9766 26.9115 22.4049 26.0781 19.957C25.2578 17.5091 24.099 15.2695 22.6016 13.2383C21.1042 11.194 19.3333 9.42318 17.2891 7.92578C15.2578 6.41536 13.0182 5.25 10.5703 4.42969C8.1224 3.60938 5.55078 3.19922 2.85547 3.19922C2.42578 3.19922 2.05469 3.04297 1.74219 2.73047C1.42969 2.41797 1.27344 2.04688 1.27344 1.61719Z" fill="#151615"/>
</svg>
