<svg width="58" height="39" viewBox="0 0 58 39" fill="none" xmlns="http://www.w3.org/2000/svg">
<path d="M31.5703 31.125L26.4922 33.0391C26.1276 33.1823 25.7891 33.1042 25.4766 32.8047C25.1771 32.5052 25.1055 32.1602 25.2617 31.7695L27.2344 26.7695L47.7617 6.24219L52.0977 10.5781L31.5703 31.125ZM54.2461 8.46875L49.8906 4.11328L52.2539 1.78906C52.8268 1.22917 53.4258 0.929688 54.0508 0.890625C54.6888 0.851562 55.2682 1.09896 55.7891 1.63281L56.7266 2.58984C57.2734 3.13672 57.5339 3.72266 57.5078 4.34766C57.4818 4.95964 57.1823 5.55208 56.6094 6.125L54.2461 8.46875ZM1.0625 33.3711C0.554688 31.8607 0.404948 30.4674 0.613281 29.1914C0.821615 27.9023 1.28385 26.724 2 25.6562C2.71615 24.5755 3.58854 23.5924 4.61719 22.707C5.64583 21.8086 6.73307 20.9948 7.87891 20.2656C9.02474 19.5234 10.125 18.8529 11.1797 18.2539C12.8333 17.3164 14.1029 16.5417 14.9883 15.9297C15.8867 15.3047 16.4857 14.7708 16.7852 14.3281C17.0846 13.8724 17.1497 13.4232 16.9805 12.9805C16.8503 12.5898 16.4466 12.3685 15.7695 12.3164C15.1055 12.2513 14.2786 12.3099 13.2891 12.4922C12.2995 12.6615 11.2448 12.9284 10.125 13.293C9.00521 13.6445 7.90495 14.0547 6.82422 14.5234C5.74349 14.9792 4.78646 15.4544 3.95312 15.9492C3.27604 16.3008 2.67708 16.4049 2.15625 16.2617C1.64844 16.1055 1.26432 15.819 1.00391 15.4023C0.75651 14.9727 0.678385 14.5104 0.769531 14.0156C0.873698 13.5078 1.21224 13.0651 1.78516 12.6875C3.26953 11.6979 4.81901 10.8711 6.43359 10.207C8.04818 9.52995 9.63672 9.04167 11.1992 8.74219C12.7617 8.42969 14.207 8.32552 15.5352 8.42969C16.8763 8.53385 18.0091 8.85938 18.9336 9.40625C19.8711 9.95312 20.5156 10.7409 20.8672 11.7695C21.2708 13.0195 21.2383 14.1654 20.7695 15.207C20.3138 16.2357 19.5651 17.1927 18.5234 18.0781C17.4948 18.9635 16.3229 19.8164 15.0078 20.6367C13.6927 21.444 12.3776 22.2513 11.0625 23.0586C9.7474 23.8529 8.5625 24.6862 7.50781 25.5586C6.46615 26.418 5.69141 27.3424 5.18359 28.332C4.6888 29.3086 4.6237 30.3958 4.98828 31.5938C5.26172 32.4792 5.8737 33.1628 6.82422 33.6445C7.78776 34.1393 8.99219 34.4128 10.4375 34.4648C11.8958 34.5169 13.5039 34.3346 15.2617 33.918C17.0326 33.5143 18.862 32.8633 20.75 31.9648L22.4297 35.5195C19.9167 36.7565 17.4883 37.6224 15.1445 38.1172C12.8138 38.612 10.6784 38.7552 8.73828 38.5469C6.8112 38.3516 5.17708 37.8177 3.83594 36.9453C2.50781 36.0729 1.58333 34.8815 1.0625 33.3711Z" fill="black"/>
</svg>
