<svg width="43" height="35" viewBox="0 0 43 35" fill="none" xmlns="http://www.w3.org/2000/svg">
<path d="M34.5547 34.2969C32.9922 34.2969 31.5729 33.9258 30.2969 33.1836C29.0339 32.4544 28.0247 31.4648 27.2695 30.2148C26.5143 28.9779 26.1367 27.5911 26.1367 26.0547C26.1367 24.7917 26.3906 23.5482 26.8984 22.3242C27.4062 21.1003 27.9401 19.974 28.5 18.9453L32.9141 10.6836C33.2786 10.0065 33.8255 9.66797 34.5547 9.66797C35.2839 9.66797 35.8242 10.0065 36.1758 10.6836L40.6094 18.9453C41.1693 19.974 41.7031 21.1003 42.2109 22.3242C42.7318 23.5482 42.9922 24.7917 42.9922 26.0547C42.9922 27.5911 42.6146 28.9779 41.8594 30.2148C41.1042 31.4648 40.0885 32.4544 38.8125 33.1836C37.5365 33.9258 36.1172 34.2969 34.5547 34.2969ZM8.91016 10.6836C7.64714 10.6836 6.44271 10.5339 5.29688 10.2344C4.15104 9.92188 3.02474 9.44661 1.91797 8.80859C1.38411 8.49609 1.08464 8.11198 1.01953 7.65625C0.954427 7.1875 1.03255 6.77734 1.25391 6.42578C1.46224 6.1263 1.7487 5.91797 2.11328 5.80078C2.47786 5.68359 2.86849 5.74219 3.28516 5.97656C4.27474 6.54948 5.21875 6.95312 6.11719 7.1875C7.01562 7.42188 7.94661 7.53906 8.91016 7.53906C10.5117 7.53906 12.0091 7.29167 13.4023 6.79688C14.7956 6.30208 16.1367 5.6901 17.4258 4.96094C18.7279 4.23177 20.043 3.5026 21.3711 2.77344C22.7122 2.03125 24.125 1.41276 25.6094 0.917969C27.0938 0.423177 28.7214 0.175781 30.4922 0.175781C31.7422 0.175781 32.9401 0.332031 34.0859 0.644531C35.2448 0.94401 36.3711 1.41276 37.4648 2.05078C38.0117 2.3763 38.3177 2.77344 38.3828 3.24219C38.4479 3.69792 38.3633 4.10156 38.1289 4.45312C37.9206 4.73958 37.6341 4.94141 37.2695 5.05859C36.9049 5.17578 36.5143 5.11719 36.0977 4.88281C35.1081 4.3099 34.1641 3.90625 33.2656 3.67188C32.3672 3.4375 31.4427 3.32031 30.4922 3.32031C28.8516 3.32031 27.3281 3.56771 25.9219 4.0625C24.5156 4.55729 23.1549 5.17578 21.8398 5.91797C20.5378 6.64714 19.2227 7.3763 17.8945 8.10547C16.5664 8.83464 15.1667 9.44661 13.6953 9.94141C12.237 10.4362 10.6419 10.6836 8.91016 10.6836ZM8.92969 21.1719C7.67969 21.1719 6.47526 21.0156 5.31641 20.7031C4.17057 20.3906 3.04427 19.9154 1.9375 19.2773C1.40365 18.9648 1.10417 18.5807 1.03906 18.125C0.973958 17.6562 1.05859 17.2461 1.29297 16.8945C1.48828 16.5951 1.76823 16.3867 2.13281 16.2695C2.4974 16.1523 2.88802 16.2109 3.30469 16.4453C4.30729 17.0182 5.2513 17.4284 6.13672 17.6758C7.03516 17.9102 7.96615 18.0273 8.92969 18.0273C10.5052 18.0273 11.9635 17.793 13.3047 17.3242C14.6589 16.8424 15.9609 16.25 17.2109 15.5469C18.474 14.8438 19.7435 14.1341 21.0195 13.418C22.3086 12.7018 23.6758 12.0833 25.1211 11.5625C26.5664 11.0417 28.1549 10.7422 29.8867 10.6641C29.5872 11.237 29.2812 11.8099 28.9688 12.3828C28.6562 12.9427 28.3503 13.5091 28.0508 14.082C26.6966 14.3164 25.4076 14.707 24.1836 15.2539C22.9727 15.8008 21.7812 16.4128 20.6094 17.0898C19.4505 17.7539 18.2656 18.3984 17.0547 19.0234C15.8438 19.6354 14.5742 20.1497 13.2461 20.5664C11.918 20.9701 10.4792 21.1719 8.92969 21.1719ZM8.91016 31.6406C7.64714 31.6406 6.44271 31.4844 5.29688 31.1719C4.15104 30.8594 3.02474 30.3841 1.91797 29.7461C1.38411 29.4336 1.08464 29.0495 1.01953 28.5938C0.954427 28.125 1.03255 27.7148 1.25391 27.3633C1.46224 27.0638 1.7487 26.8555 2.11328 26.7383C2.47786 26.6211 2.86849 26.6797 3.28516 26.9141C4.27474 27.487 5.21875 27.8971 6.11719 28.1445C7.01562 28.3789 7.94661 28.4961 8.91016 28.4961C10.3685 28.4961 11.7357 28.2878 13.0117 27.8711C14.2878 27.4414 15.5182 26.9076 16.7031 26.2695C17.901 25.6315 19.0924 24.974 20.2773 24.2969C21.4753 23.6068 22.7253 23.0013 24.0273 22.4805C23.8581 23.0534 23.7214 23.6849 23.6172 24.375C23.513 25.0521 23.487 25.6055 23.5391 26.0352C22.3802 26.569 21.2409 27.1549 20.1211 27.793C19.0013 28.431 17.862 29.043 16.7031 29.6289C15.5443 30.2148 14.3203 30.6966 13.0312 31.0742C11.7552 31.4518 10.3815 31.6406 8.91016 31.6406Z" fill="black"/>
</svg>
