<svg width="33" height="34" viewBox="0 0 33 34" fill="none" xmlns="http://www.w3.org/2000/svg">
<path d="M0.386719 16.8984C0.386719 16.4167 0.55599 16.0065 0.894531 15.668C1.24609 15.3164 1.65625 15.1406 2.125 15.1406H14.7617V2.52344C14.7617 2.05469 14.931 1.65104 15.2695 1.3125C15.6081 0.960938 16.0182 0.785156 16.5 0.785156C16.9818 0.785156 17.3919 0.960938 17.7305 1.3125C18.082 1.65104 18.2578 2.05469 18.2578 2.52344V15.1406H30.875C31.3438 15.1406 31.7474 15.3164 32.0859 15.668C32.4375 16.0065 32.6133 16.4167 32.6133 16.8984C32.6133 17.3802 32.4375 17.7904 32.0859 18.1289C31.7474 18.4674 31.3438 18.6367 30.875 18.6367H18.2578V31.2734C18.2578 31.7422 18.082 32.1458 17.7305 32.4844C17.3919 32.8359 16.9818 33.0117 16.5 33.0117C16.0182 33.0117 15.6081 32.8359 15.2695 32.4844C14.931 32.1458 14.7617 31.7422 14.7617 31.2734V18.6367H2.125C1.65625 18.6367 1.24609 18.4674 0.894531 18.1289C0.55599 17.7904 0.386719 17.3802 0.386719 16.8984Z" fill="black"/>
</svg>
