<svg width="43" height="44" viewBox="0 0 43 44" fill="none" xmlns="http://www.w3.org/2000/svg">
<path d="M23.3477 2.32812V6.42969C23.3477 6.89844 23.1784 7.30208 22.8398 7.64062C22.5013 7.96615 22.0977 8.12891 21.6289 8.12891C21.1732 8.12891 20.776 7.96615 20.4375 7.64062C20.099 7.30208 19.9297 6.89844 19.9297 6.42969V2.32812C19.9297 1.85938 20.099 1.46224 20.4375 1.13672C20.776 0.798177 21.1732 0.628906 21.6289 0.628906C22.0977 0.628906 22.5013 0.798177 22.8398 1.13672C23.1784 1.46224 23.3477 1.85938 23.3477 2.32812ZM23.3477 37.2109V41.3125C23.3477 41.7812 23.1784 42.1784 22.8398 42.5039C22.5013 42.8424 22.0977 43.0117 21.6289 43.0117C21.1732 43.0117 20.776 42.8424 20.4375 42.5039C20.099 42.1784 19.9297 41.7812 19.9297 41.3125V37.2109C19.9297 36.7422 20.099 36.3385 20.4375 36C20.776 35.6745 21.1732 35.5117 21.6289 35.5117C22.0977 35.5117 22.5013 35.6745 22.8398 36C23.1784 36.3385 23.3477 36.7422 23.3477 37.2109ZM41.0625 23.5195H36.9805C36.5247 23.5195 36.1276 23.3568 35.7891 23.0312C35.4505 22.6927 35.2812 22.2891 35.2812 21.8203C35.2812 21.3646 35.4505 20.9674 35.7891 20.6289C36.1276 20.2904 36.5247 20.1211 36.9805 20.1211H41.0625C41.5312 20.1211 41.9349 20.2904 42.2734 20.6289C42.612 20.9674 42.7812 21.3646 42.7812 21.8203C42.7812 22.2891 42.612 22.6927 42.2734 23.0312C41.9349 23.3568 41.5312 23.5195 41.0625 23.5195ZM2.19531 20.1211H6.27734C6.74609 20.1211 7.14974 20.2904 7.48828 20.6289C7.82682 20.9674 7.99609 21.3646 7.99609 21.8203C7.99609 22.2891 7.82682 22.6927 7.48828 23.0312C7.14974 23.3568 6.74609 23.5195 6.27734 23.5195H2.19531C1.73958 23.5195 1.34245 23.3568 1.00391 23.0312C0.665365 22.6927 0.496094 22.2891 0.496094 21.8203C0.496094 21.3646 0.665365 20.9674 1.00391 20.6289C1.34245 20.2904 1.73958 20.1211 2.19531 20.1211ZM9.55859 12.1719L6.64844 9.24219C6.33594 8.92969 6.17969 8.53255 6.17969 8.05078C6.17969 7.56901 6.34245 7.16536 6.66797 6.83984C7.00651 6.51432 7.41016 6.35807 7.87891 6.37109C8.36068 6.37109 8.75781 6.52734 9.07031 6.83984L11.9805 9.76953C12.306 10.0951 12.4622 10.4987 12.4492 10.9805C12.4492 11.4622 12.2865 11.8594 11.9609 12.1719C11.6354 12.4974 11.2318 12.6602 10.75 12.6602C10.2812 12.6602 9.88411 12.4974 9.55859 12.1719ZM31.2773 9.76953L34.2266 6.83984C34.5521 6.51432 34.9492 6.35156 35.418 6.35156C35.8867 6.35156 36.2839 6.51432 36.6094 6.83984C36.9349 7.16536 37.0977 7.56901 37.0977 8.05078C37.0977 8.53255 36.9349 8.9362 36.6094 9.26172L33.6992 12.1719C33.3607 12.5104 32.9505 12.6797 32.4688 12.6797C32 12.6667 31.6029 12.4974 31.2773 12.1719C30.9518 11.8464 30.7891 11.4492 30.7891 10.9805C30.7891 10.4987 30.9518 10.0951 31.2773 9.76953ZM33.6797 31.4883L36.6094 34.3984C36.9349 34.724 37.0977 35.1276 37.0977 35.6094C37.0977 36.0781 36.9349 36.4753 36.6094 36.8008C36.2839 37.1263 35.8867 37.2891 35.418 37.2891C34.9492 37.3021 34.5521 37.1458 34.2266 36.8203L31.2773 33.8906C30.9518 33.5651 30.7891 33.168 30.7891 32.6992C30.7891 32.2174 30.9518 31.8138 31.2773 31.4883C31.6029 31.1628 32 31 32.4688 31C32.9505 31 33.3542 31.1628 33.6797 31.4883ZM6.64844 34.3789L9.55859 31.4883C9.88411 31.1628 10.2878 31 10.7695 31C11.2513 31 11.6549 31.1628 11.9805 31.4883C12.306 31.8138 12.4622 32.2174 12.4492 32.6992C12.4492 33.168 12.2865 33.5651 11.9609 33.8906L9.05078 36.8008C8.72526 37.1263 8.32161 37.2826 7.83984 37.2695C7.35807 37.2695 6.95443 37.1068 6.62891 36.7812C6.31641 36.4557 6.16016 36.0586 6.16016 35.5898C6.16016 35.1081 6.32292 34.7044 6.64844 34.3789ZM21.6289 11.8594C22.9831 11.8594 24.2591 12.1198 25.457 12.6406C26.668 13.1615 27.7292 13.8776 28.6406 14.7891C29.5521 15.7005 30.2682 16.7617 30.7891 17.9727C31.3099 19.1706 31.5703 20.4531 31.5703 21.8203C31.5703 23.1875 31.3099 24.4766 30.7891 25.6875C30.2682 26.8854 29.5521 27.9466 28.6406 28.8711C27.7292 29.7826 26.668 30.4987 25.457 31.0195C24.2591 31.5404 22.9831 31.8008 21.6289 31.8008C20.2617 31.8008 18.9792 31.5404 17.7812 31.0195C16.5833 30.4987 15.5221 29.7826 14.5977 28.8711C13.6862 27.9466 12.9701 26.8854 12.4492 25.6875C11.9284 24.4766 11.668 23.1875 11.668 21.8203C11.668 20.4531 11.9284 19.1706 12.4492 17.9727C12.9701 16.7617 13.6862 15.7005 14.5977 14.7891C15.5221 13.8776 16.5833 13.1615 17.7812 12.6406C18.9792 12.1198 20.2617 11.8594 21.6289 11.8594Z" fill="black"/>
</svg>
