<svg width="22" height="44" viewBox="0 0 22 44" fill="none" xmlns="http://www.w3.org/2000/svg">
<path d="M11.2148 43.5781C9.79557 43.5781 8.46745 43.3112 7.23047 42.7773C5.99349 42.2565 4.90625 41.5273 3.96875 40.5898C3.03125 39.6523 2.29557 38.5651 1.76172 37.3281C1.24089 36.1042 0.980469 34.7891 0.980469 33.3828C0.980469 31.8984 1.27995 30.5117 1.87891 29.2227C2.47786 27.9336 3.36328 26.7617 4.53516 25.707C4.74349 25.5117 4.88021 25.3359 4.94531 25.1797C5.01042 25.0234 5.04297 24.8021 5.04297 24.5156V6.85938C5.04297 5.54427 5.30339 4.38542 5.82422 3.38281C6.34505 2.38021 7.06771 1.59896 7.99219 1.03906C8.91667 0.466146 9.99089 0.179688 11.2148 0.179688C12.4258 0.179688 13.487 0.466146 14.3984 1.03906C15.3229 1.59896 16.0391 2.38021 16.5469 3.38281C17.0677 4.38542 17.3281 5.54427 17.3281 6.85938V24.5156C17.3281 24.8021 17.3607 25.0234 17.4258 25.1797C17.4909 25.3359 17.6276 25.5117 17.8359 25.707C19.0078 26.7617 19.8932 27.9336 20.4922 29.2227C21.0911 30.5117 21.3906 31.8984 21.3906 33.3828C21.3906 34.7891 21.1237 36.1042 20.5898 37.3281C20.069 38.5651 19.3398 39.6523 18.4023 40.5898C17.4779 41.5273 16.3971 42.2565 15.1602 42.7773C13.9232 43.3112 12.6081 43.5781 11.2148 43.5781ZM11.2148 40.7461C12.556 40.7461 13.7799 40.4141 14.8867 39.75C15.9935 39.0859 16.8789 38.194 17.543 37.0742C18.207 35.9674 18.5391 34.737 18.5391 33.3828C18.5391 32.1589 18.2591 31.0195 17.6992 29.9648C17.1393 28.9102 16.3385 28.0378 15.2969 27.3477C14.9974 27.1393 14.7826 26.9245 14.6523 26.7031C14.5221 26.4818 14.457 26.1693 14.457 25.7656V6.97656C14.457 5.80469 14.151 4.86068 13.5391 4.14453C12.9401 3.41536 12.1654 3.05078 11.2148 3.05078C10.2253 3.05078 9.42448 3.41536 8.8125 4.14453C8.21354 4.86068 7.91406 5.80469 7.91406 6.97656V25.7656C7.91406 26.1693 7.84896 26.4818 7.71875 26.7031C7.58854 26.9245 7.3737 27.1393 7.07422 27.3477C6.03255 28.0378 5.23177 28.9102 4.67188 29.9648C4.11198 31.0195 3.83203 32.1589 3.83203 33.3828C3.83203 34.737 4.16406 35.9674 4.82812 37.0742C5.49219 38.194 6.3776 39.0859 7.48438 39.75C8.60417 40.4141 9.84766 40.7461 11.2148 40.7461ZM11.1953 38.1094C10.3229 38.1094 9.52865 37.8945 8.8125 37.4648C8.09635 37.0482 7.52344 36.4818 7.09375 35.7656C6.67708 35.0365 6.46875 34.2357 6.46875 33.3633C6.46875 32.4518 6.70312 31.638 7.17188 30.9219C7.64062 30.1927 8.24609 29.6198 8.98828 29.2031C9.3138 29.0339 9.53516 28.8581 9.65234 28.6758C9.78255 28.4935 9.84766 28.1615 9.84766 27.6797V20.9414C9.84766 20.5768 9.97786 20.2643 10.2383 20.0039C10.4987 19.7305 10.8177 19.5938 11.1953 19.5938C11.5599 19.5938 11.8724 19.7305 12.1328 20.0039C12.3932 20.2643 12.5234 20.5768 12.5234 20.9414V27.6797C12.5234 28.1615 12.582 28.4935 12.6992 28.6758C12.8294 28.8581 13.0573 29.0339 13.3828 29.2031C14.125 29.6198 14.7305 30.1927 15.1992 30.9219C15.668 31.638 15.9023 32.4518 15.9023 33.3633C15.9023 34.2357 15.6875 35.0365 15.2578 35.7656C14.8411 36.4818 14.2747 37.0482 13.5586 37.4648C12.8424 37.8945 12.0547 38.1094 11.1953 38.1094ZM11.1953 17.6406C10.8177 17.6406 10.4987 17.5104 10.2383 17.25C9.97786 16.9766 9.84766 16.6576 9.84766 16.293C9.84766 15.9284 9.97786 15.6159 10.2383 15.3555C10.4987 15.082 10.8177 14.9453 11.1953 14.9453C11.5599 14.9453 11.8724 15.082 12.1328 15.3555C12.3932 15.6159 12.5234 15.9284 12.5234 16.293C12.5234 16.6576 12.3932 16.9766 12.1328 17.25C11.8724 17.5104 11.5599 17.6406 11.1953 17.6406ZM11.1953 12.9727C10.8177 12.9727 10.4987 12.8424 10.2383 12.582C9.97786 12.3216 9.84766 12.0026 9.84766 11.625C9.84766 11.2604 9.97786 10.9479 10.2383 10.6875C10.4987 10.4141 10.8177 10.2773 11.1953 10.2773C11.5599 10.2773 11.8724 10.4141 12.1328 10.6875C12.3932 10.9479 12.5234 11.2604 12.5234 11.625C12.5234 12.0026 12.3932 12.3216 12.1328 12.582C11.8724 12.8424 11.5599 12.9727 11.1953 12.9727ZM11.1953 8.32422C10.8177 8.32422 10.4987 8.19401 10.2383 7.93359C9.97786 7.67318 9.84766 7.35417 9.84766 6.97656C9.84766 6.61198 9.97786 6.29948 10.2383 6.03906C10.4987 5.76562 10.8177 5.62891 11.1953 5.62891C11.5599 5.62891 11.8724 5.76562 12.1328 6.03906C12.3932 6.29948 12.5234 6.61198 12.5234 6.97656C12.5234 7.35417 12.3932 7.67318 12.1328 7.93359C11.8724 8.19401 11.5599 8.32422 11.1953 8.32422Z" fill="black"/>
</svg>
