<svg width="51" height="52" viewBox="0 0 51 52" fill="none" xmlns="http://www.w3.org/2000/svg">
<path d="M20.793 40.7422C19.4388 40.7422 18.2083 40.5729 17.1016 40.2344C16.0078 39.9089 15.0768 39.5247 14.3086 39.082C13.5404 38.6393 12.974 38.2617 12.6094 37.9492C11.776 38.3529 10.9688 38.6523 10.1875 38.8477C9.41927 39.043 8.67708 39.1406 7.96094 39.1406C6.4375 39.1406 5.09635 38.8021 3.9375 38.125C2.77865 37.4479 1.86719 36.5169 1.20312 35.332C0.552083 34.1341 0.226562 32.7474 0.226562 31.1719C0.226562 29.987 0.480469 28.7826 0.988281 27.5586C1.50911 26.3216 2.32943 25.1432 3.44922 24.0234C2.5638 23.0859 1.91927 22.0833 1.51562 21.0156C1.125 19.9479 0.929688 18.8737 0.929688 17.793C0.929688 16.2435 1.29427 14.7786 2.02344 13.3984C2.7526 12.0052 3.72917 10.8529 4.95312 9.94141C6.17708 9.01693 7.53776 8.46354 9.03516 8.28125C9.08724 7.16146 9.40625 6.1263 9.99219 5.17578C10.5911 4.22526 11.3659 3.40495 12.3164 2.71484C13.2799 2.02474 14.3411 1.49089 15.5 1.11328C16.6719 0.735677 17.8568 0.546875 19.0547 0.546875C20.2786 0.546875 21.444 0.748698 22.5508 1.15234C23.6576 1.55599 24.6406 2.19401 25.5 3.06641C26.3464 2.19401 27.3229 1.55599 28.4297 1.15234C29.5495 0.748698 30.7214 0.546875 31.9453 0.546875C33.1432 0.546875 34.3216 0.735677 35.4805 1.11328C36.6523 1.49089 37.7201 2.02474 38.6836 2.71484C39.6471 3.40495 40.4219 4.22526 41.0078 5.17578C41.6068 6.1263 41.9323 7.16146 41.9844 8.28125C43.4818 8.46354 44.8359 9.01693 46.0469 9.94141C47.2708 10.8529 48.2409 12.0052 48.957 13.3984C49.6862 14.7786 50.0508 16.2435 50.0508 17.793C50.0508 18.8737 49.8555 19.9479 49.4648 21.0156C49.0742 22.0833 48.4362 23.0859 47.5508 24.0234C48.6706 25.1432 49.4844 26.3216 49.9922 27.5586C50.513 28.7826 50.7734 29.987 50.7734 31.1719C50.7734 32.7474 50.4414 34.1341 49.7773 35.332C49.1263 36.5169 48.2214 37.4479 47.0625 38.125C45.9036 38.8021 44.5625 39.1406 43.0391 39.1406C42.3229 39.1406 41.5742 39.043 40.793 38.8477C40.0117 38.6523 39.2109 38.3529 38.3906 37.9492C38.026 38.2617 37.4596 38.6393 36.6914 39.082C35.9232 39.5247 34.9857 39.9089 33.8789 40.2344C32.7852 40.5729 31.5612 40.7422 30.207 40.7422C29.4909 40.7422 28.7357 40.6836 27.9414 40.5664C27.1471 40.4492 26.3333 40.2409 25.5 39.9414C24.6667 40.2409 23.8529 40.4492 23.0586 40.5664C22.2643 40.6836 21.5091 40.7422 20.793 40.7422ZM20.793 37.9297C21.5352 37.9297 22.2708 37.8581 23 37.7148C23.7292 37.5716 24.5625 37.3112 25.5 36.9336C26.4375 37.3112 27.2708 37.5716 28 37.7148C28.7292 37.8581 29.4648 37.9297 30.207 37.9297C31.7174 37.9297 32.987 37.7148 34.0156 37.2852C35.0573 36.8424 35.8906 36.3477 36.5156 35.8008C37.1536 35.2409 37.6159 34.7917 37.9023 34.4531C38.931 35.1823 39.8099 35.6771 40.5391 35.9375C41.2682 36.1849 42.1016 36.3086 43.0391 36.3086C44.5234 36.3086 45.7083 35.8398 46.5938 34.9023C47.4922 33.9648 47.9414 32.7214 47.9414 31.1719C47.9414 30.1302 47.7005 29.1536 47.2188 28.2422C46.75 27.3177 45.8385 26.237 44.4844 25C44.1849 24.7396 44.0417 24.4206 44.0547 24.043C44.0677 23.6523 44.1979 23.3333 44.4453 23.0859C45.5911 21.9792 46.3398 21.0026 46.6914 20.1562C47.056 19.2969 47.2383 18.3854 47.2383 17.4219C47.2383 16.1719 46.9323 15.0456 46.3203 14.043C45.7214 13.0404 44.8685 12.2656 43.7617 11.7188C42.668 11.1719 41.3789 10.9505 39.8945 11.0547C39.569 11.0807 39.3411 11.0026 39.2109 10.8203C39.0938 10.638 39.0547 10.4297 39.0938 10.1953C39.276 8.93229 39.0742 7.78646 38.4883 6.75781C37.9154 5.71615 37.043 4.88932 35.8711 4.27734C34.6992 3.66536 33.332 3.35938 31.7695 3.35938C30.4154 3.35938 29.2435 3.61328 28.2539 4.12109C27.2773 4.61589 26.3594 5.31901 25.5 6.23047C24.6406 5.31901 23.7227 4.61589 22.7461 4.12109C21.7695 3.61328 20.5977 3.35938 19.2305 3.35938C17.668 3.35938 16.3008 3.66536 15.1289 4.27734C13.957 4.88932 13.0781 5.71615 12.4922 6.75781C11.9193 7.78646 11.724 8.93229 11.9062 10.1953C11.9453 10.4297 11.9062 10.638 11.7891 10.8203C11.6719 11.0026 11.444 11.0807 11.1055 11.0547C9.62109 10.9505 8.32552 11.1719 7.21875 11.7188C6.125 12.2656 5.27214 13.0404 4.66016 14.043C4.04818 15.0456 3.74219 16.1719 3.74219 17.4219C3.74219 18.3854 3.92448 19.2969 4.28906 20.1562C4.65365 21.0026 5.40885 21.9792 6.55469 23.0859C6.80208 23.3333 6.93229 23.6523 6.94531 24.043C6.95833 24.4206 6.8151 24.7396 6.51562 25C5.16146 26.237 4.24349 27.3177 3.76172 28.2422C3.29297 29.1536 3.05859 30.1302 3.05859 31.1719C3.05859 32.7214 3.5013 33.9648 4.38672 34.9023C5.28516 35.8398 6.47656 36.3086 7.96094 36.3086C8.89844 36.3086 9.73177 36.1849 10.4609 35.9375C11.1901 35.6771 12.0625 35.1823 13.0781 34.4531C13.3776 34.7917 13.8398 35.2409 14.4648 35.8008C15.1029 36.3477 15.9362 36.8424 16.9648 37.2852C18.0065 37.7148 19.2826 37.9297 20.793 37.9297ZM15.0898 31.25C14.7513 31.25 14.4583 31.1328 14.2109 30.8984C13.9766 30.6641 13.8594 30.3776 13.8594 30.0391C13.8594 29.7005 13.9766 29.4141 14.2109 29.1797C14.4583 28.9323 14.7513 28.8086 15.0898 28.8086C16.1836 28.7956 17.0755 28.5938 17.7656 28.2031C18.4688 27.8125 18.9896 27.2786 19.3281 26.6016C19.6667 25.9115 19.8555 25.1107 19.8945 24.1992C19.9076 23.8737 20.0312 23.6263 20.2656 23.457C20.513 23.2747 20.7865 23.1966 21.0859 23.2227C21.3984 23.2487 21.6523 23.3984 21.8477 23.6719C22.2643 24.2708 22.7656 24.7396 23.3516 25.0781C23.9505 25.4167 24.6667 25.5859 25.5 25.5859C26.3333 25.5859 27.043 25.4167 27.6289 25.0781C28.2279 24.7396 28.7357 24.2708 29.1523 23.6719C29.3477 23.3984 29.5951 23.2487 29.8945 23.2227C30.207 23.1966 30.4805 23.2747 30.7148 23.457C30.9622 23.6263 31.0924 23.8737 31.1055 24.1992C31.1315 25.1107 31.3138 25.9115 31.6523 26.6016C32.0039 27.2786 32.5247 27.8125 33.2148 28.2031C33.918 28.5938 34.8164 28.7956 35.9102 28.8086C36.2487 28.8086 36.5352 28.9323 36.7695 29.1797C37.0169 29.4141 37.1406 29.7005 37.1406 30.0391C37.1406 30.3776 37.0169 30.6641 36.7695 30.8984C36.5352 31.1328 36.2487 31.25 35.9102 31.25C34.0742 31.25 32.6224 30.8724 31.5547 30.1172C30.487 29.349 29.7318 28.3529 29.2891 27.1289C28.7552 27.4935 28.1758 27.7669 27.5508 27.9492C26.9258 28.1315 26.2422 28.2227 25.5 28.2227C24.7578 28.2227 24.0742 28.1315 23.4492 27.9492C22.8242 27.7669 22.2448 27.4935 21.7109 27.1289C21.2552 28.3529 20.4935 29.349 19.4258 30.1172C18.3581 30.8724 16.9128 31.25 15.0898 31.25ZM25.5 51.5234C24.5625 51.5234 23.8073 51.3867 23.2344 51.1133C22.6745 50.8398 22.3945 50.4688 22.3945 50C22.3945 49.5964 22.4206 48.9779 22.4727 48.1445C22.5378 47.3112 22.5964 46.3932 22.6484 45.3906C22.7135 44.388 22.7461 43.4245 22.7461 42.5C22.7461 41.6406 22.5898 40.6576 22.2773 39.5508C21.9648 38.444 21.5742 37.3112 21.1055 36.1523C20.6497 34.9935 20.1745 33.9062 19.6797 32.8906C19.1849 31.862 18.7422 30.9896 18.3516 30.2734C17.9609 29.5573 17.7005 29.0885 17.5703 28.8672L20.1289 27.0898C20.4544 27.6888 20.806 28.3398 21.1836 29.043C21.5742 29.7331 21.9909 30.5273 22.4336 31.4258C22.8763 32.3112 23.3646 33.3398 23.8984 34.5117V27.7539H27.1016V34.4922C27.6224 33.3203 28.1042 32.2917 28.5469 31.4062C29.0026 30.5208 29.4193 29.7331 29.7969 29.043C30.1875 28.3398 30.5456 27.6888 30.8711 27.0898L33.4492 28.8672C33.319 29.0885 33.0521 29.5573 32.6484 30.2734C32.2578 30.9896 31.8151 31.862 31.3203 32.8906C30.8255 33.9062 30.3438 34.9935 29.875 36.1523C29.4062 37.3112 29.0156 38.444 28.7031 39.5508C28.4036 40.6576 28.2539 41.6406 28.2539 42.5C28.2539 43.4245 28.2799 44.388 28.332 45.3906C28.3971 46.3932 28.4557 47.3112 28.5078 48.1445C28.5729 48.9779 28.6055 49.5964 28.6055 50C28.6055 50.4688 28.319 50.8398 27.7461 51.1133C27.1862 51.3867 26.4375 51.5234 25.5 51.5234Z" fill="black"/>
</svg>
